<svg width="28" height="29" viewBox="0 0 28 29" fill="none" xmlns="http://www.w3.org/2000/svg">
<path fill-rule="evenodd" clip-rule="evenodd" d="M3.5 6.625C3.5 6.14175 3.89175 5.75 4.375 5.75H23.625C24.1082 5.75 24.5 6.14175 24.5 6.625C24.5 7.10825 24.1082 7.5 23.625 7.5H4.375C3.89175 7.5 3.5 7.10825 3.5 6.625Z" fill="#C44117"/>
<path fill-rule="evenodd" clip-rule="evenodd" d="M11.375 11C11.8582 11 12.25 11.3918 12.25 11.875V18.875C12.25 19.3582 11.8582 19.75 11.375 19.75C10.8918 19.75 10.5 19.3582 10.5 18.875V11.875C10.5 11.3918 10.8918 11 11.375 11Z" fill="#C44117"/>
<path fill-rule="evenodd" clip-rule="evenodd" d="M16.625 11C17.1082 11 17.5 11.3918 17.5 11.875V18.875C17.5 19.3582 17.1082 19.75 16.625 19.75C16.1418 19.75 15.75 19.3582 15.75 18.875V11.875C15.75 11.3918 16.1418 11 16.625 11Z" fill="#C44117"/>
<path fill-rule="evenodd" clip-rule="evenodd" d="M6.125 5.75C6.60825 5.75 7 6.14175 7 6.625V23.25H21V6.625C21 6.14175 21.3918 5.75 21.875 5.75C22.3582 5.75 22.75 6.14175 22.75 6.625V23.25C22.75 23.7141 22.5656 24.1592 22.2374 24.4874C21.9092 24.8156 21.4641 25 21 25H7C6.53587 25 6.09075 24.8156 5.76256 24.4874C5.43437 24.1592 5.25 23.7141 5.25 23.25V6.625C5.25 6.14175 5.64175 5.75 6.125 5.75Z" fill="#C44117"/>
<path fill-rule="evenodd" clip-rule="evenodd" d="M9.51885 3.01884C10.0111 2.52656 10.6788 2.25 11.375 2.25H16.625C17.3212 2.25 17.9889 2.52656 18.4812 3.01884C18.9734 3.51113 19.25 4.17881 19.25 4.875V6.625C19.25 7.10825 18.8582 7.5 18.375 7.5C17.8918 7.5 17.5 7.10825 17.5 6.625V4.875C17.5 4.64294 17.4078 4.42038 17.2437 4.25628C17.0796 4.09219 16.8571 4 16.625 4H11.375C11.1429 4 10.9204 4.09219 10.7563 4.25628C10.5922 4.42038 10.5 4.64294 10.5 4.875V6.625C10.5 7.10825 10.1082 7.5 9.625 7.5C9.14175 7.5 8.75 7.10825 8.75 6.625V4.875C8.75 4.17881 9.02656 3.51113 9.51885 3.01884Z" fill="#C44117"/>
</svg>
