<svg width="36" height="36" viewBox="0 0 36 36" fill="none" xmlns="http://www.w3.org/2000/svg">
<path d="M25.4922 13.1094L24.5391 18.3359C24.4604 18.7677 24.2329 19.1582 23.8959 19.4394C23.559 19.7206 23.1342 19.8748 22.6953 19.875H13.6328L13.9766 21.75H22.375C22.7458 21.75 23.1084 21.86 23.4167 22.066C23.725 22.272 23.9654 22.5649 24.1073 22.9075C24.2492 23.2501 24.2863 23.6271 24.214 23.9908C24.1416 24.3545 23.963 24.6886 23.7008 24.9508C23.4386 25.213 23.1045 25.3916 22.7408 25.464C22.3771 25.5363 22.0001 25.4992 21.6575 25.3573C21.3149 25.2154 21.022 24.975 20.816 24.6667C20.61 24.3584 20.5 23.9958 20.5 23.625C20.5001 23.4119 20.5371 23.2004 20.6094 23H16.0156C16.0879 23.2004 16.1249 23.4119 16.125 23.625C16.1256 23.9275 16.0529 24.2257 15.9133 24.494C15.7736 24.7624 15.5711 24.993 15.323 25.1661C15.075 25.3392 14.7887 25.4498 14.4886 25.4883C14.1885 25.5267 13.8836 25.4921 13.5999 25.3872C13.3161 25.2823 13.062 25.1103 12.8591 24.8859C12.6562 24.6615 12.5107 24.3913 12.4348 24.0984C12.359 23.8056 12.3552 23.4987 12.4237 23.204C12.4922 22.9094 12.6309 22.6357 12.8281 22.4062L10.6641 10.5H9.25C9.08424 10.5 8.92527 10.4342 8.80806 10.3169C8.69085 10.1997 8.625 10.0408 8.625 9.875C8.625 9.70924 8.69085 9.55027 8.80806 9.43306C8.92527 9.31585 9.08424 9.25 9.25 9.25H10.6641C10.9558 9.25064 11.2381 9.35331 11.4622 9.54022C11.6862 9.72714 11.8377 9.98652 11.8906 10.2734L12.2734 12.375H24.875C24.9662 12.3752 25.0563 12.3956 25.1387 12.4348C25.2211 12.474 25.2938 12.5309 25.3516 12.6016C25.412 12.67 25.4561 12.7513 25.4804 12.8393C25.5048 12.9272 25.5088 13.0196 25.4922 13.1094Z" fill="#C47F17"/>
</svg>
