<svg width="64" height="122" viewBox="0 0 64 122" fill="none" xmlns="http://www.w3.org/2000/svg">
<path d="M14.2034 2.86738C15.6547 2.63338 17.1408 2.74814 18.5392 3.20222C19.1947 3.4287 21.5922 4.25692 22.7766 6.51325C23.2265 7.37016 23.3353 8.40469 23.5532 10.4737C23.6892 11.7661 24.1946 12.6883 24.2072 14.2658C24.1923 15.5442 23.9937 16.8138 23.6176 18.0355C23.0546 19.9476 23.4368 21.0279 23.151 21.3868C21.9991 22.8335 18.4552 21.7364 18.4181 23.6116C18.3952 24.7695 20.3889 29.7503 20.3606 31.1068C20.2947 34.2678 14.9966 31.0056 11.8036 26.3188C11.6587 26.1061 9.4926 24.8611 9.70067 22.8117C9.81186 21.7169 10.6954 16.5768 10.6007 15.9154C10.2583 13.5247 9.0515 13.2432 8.07735 10.3582C7.81354 9.634 7.73989 8.85413 7.86347 8.09329C7.98704 7.33245 8.3037 6.61616 8.78309 6.01306C10.1656 4.36043 12.0842 3.24699 14.2034 2.86738Z" fill="#D19E8A"/>
<path d="M16.0909 21.1895C17.6849 22.2912 20.7394 22.2171 20.7394 22.2171L20.7492 22.2883C19.5629 22.4431 18.4389 22.56 18.4181 23.6116C18.4742 24.2 18.599 24.7797 18.7901 25.339C16.7042 24.1622 16.0909 21.1895 16.0909 21.1895Z" fill="#B5806D"/>
<path fill-rule="evenodd" clip-rule="evenodd" d="M11.816 11.8808C11.9978 11.8038 12.2006 11.7917 12.3903 11.8466C12.2393 11.9329 12.0961 12.0323 11.9625 12.1437C11.9027 12.1933 11.8443 12.2444 11.7872 12.2971C11.8968 12.3879 11.9909 12.4965 12.0655 12.6188C12.1766 12.7952 12.2518 12.9919 12.2866 13.1976C12.3274 13.4009 12.3245 13.6107 12.2781 13.8128C12.2317 14.015 12.1429 14.205 12.0175 14.3701C12.0021 13.9993 11.9647 13.6298 11.9057 13.2635C11.8483 12.968 11.7773 12.6754 11.693 12.3866C11.6638 12.4151 11.6351 12.444 11.6067 12.4733C11.5387 12.536 11.4759 12.605 11.412 12.6751C11.3639 12.728 11.3151 12.7815 11.2631 12.8335C11.1433 12.9688 11.0155 13.0967 10.8804 13.2166C10.8868 13.0268 10.9312 12.8401 11.0108 12.6677C11.0904 12.4943 11.1994 12.3361 11.333 12.1999C11.4702 12.0613 11.6347 11.9526 11.816 11.8808Z" fill="#B5806D"/>
<path d="M15.0054 16.597C15.0054 16.597 14.1718 13.1285 14.3105 12.1322C14.5039 10.744 14.6006 10.05 14.4299 9.48717C14.1569 8.58633 14.5954 8.46497 15.1523 7.48956C15.6751 6.57411 17.325 7.29742 17.7338 7.14209C18.8814 6.70606 18.8347 6.22101 19.6125 6.16589C20.4103 6.10936 20.9943 5.89317 21.5144 6.4045C22.0448 6.9264 23.0217 8.31743 23.2576 8.07264C23.7537 7.3993 24.0549 6.60215 24.1283 5.76866C24.1272 4.94774 23.9263 4.13946 23.5429 3.41386C23.3503 2.99442 22.6334 1.43352 21.1648 1.02773C20.319 0.793969 20.1605 1.2023 18.3362 1.32609C16.444 1.45454 16.3816 1.03114 15.3926 1.3218C14.2978 1.64361 14.344 2.17097 12.4773 3.21294C11.8583 3.54741 11.2216 3.84796 10.5701 4.11326C8.22407 5.13185 7.91477 4.97484 7.37773 5.50348C6.21993 6.64321 6.42712 8.58406 6.47717 9.05286C6.61818 10.3732 7.13678 10.7659 8.27544 12.8731C10.0784 16.2102 9.73439 17.6219 10.3887 18.0864C10.7097 18.3142 12.3826 17.1016 12.3698 16.5113C12.3531 15.7374 11.7941 15.4979 11.1288 14.3849C10.6641 13.607 9.99662 12.4902 10.3666 11.4694C10.5905 10.8524 10.8476 11.0185 11.4845 11.0721C12.3489 11.1449 12.7841 12.3461 13.1379 13.2274C13.3933 13.8652 13.5069 14.551 13.4709 15.2372C13.3925 16.7681 15.3081 17.2036 15.0054 16.597Z" fill="#2E2C33"/>
<path d="M23.0781 13.1117C23.3461 13.1094 23.5611 12.837 23.5582 12.5032C23.5554 12.1695 23.3358 11.9008 23.0678 11.9031C22.7998 11.9054 22.5848 12.1778 22.5877 12.5115C22.5905 12.8453 22.8101 13.114 23.0781 13.1117Z" fill="#0A0709"/>
<path d="M18.7031 13.1497C18.9711 13.1474 19.1861 12.875 19.1832 12.5412C19.1804 12.2075 18.9608 11.9387 18.6928 11.941C18.4248 11.9433 18.2098 12.2158 18.2127 12.5495C18.2155 12.8833 18.4351 13.152 18.7031 13.1497Z" fill="#0A0709"/>
<path d="M20.7567 11.4458C20.8158 11.4453 20.8734 11.4275 20.9226 11.3947C21.3503 11.0935 21.8589 10.9288 22.3816 10.9223C22.9044 10.9157 23.4169 11.0676 23.852 11.3579C23.9173 11.406 23.999 11.4261 24.0791 11.4139C24.1593 11.4018 24.2313 11.3583 24.2795 11.293C24.3277 11.2277 24.3481 11.146 24.3362 11.0657C24.3243 10.9854 24.2811 10.9131 24.2161 10.8646C23.6776 10.5056 23.0444 10.3155 22.3975 10.3188C21.7506 10.322 21.1193 10.5185 20.5845 10.883C20.5294 10.9196 20.4876 10.973 20.4652 11.0353C20.4429 11.0976 20.4413 11.1655 20.4607 11.2288C20.4801 11.2921 20.5194 11.3474 20.5727 11.3865C20.626 11.4256 20.6906 11.4464 20.7567 11.4458Z" fill="#494752"/>
<path d="M16.2215 11.4846C16.2806 11.4841 16.3383 11.4663 16.3875 11.4335C16.8164 11.1355 17.3244 10.9727 17.8464 10.966C18.3683 10.9593 18.8804 11.1089 19.3168 11.3958C19.3491 11.4197 19.3858 11.4371 19.4247 11.4469C19.4637 11.4567 19.5042 11.4587 19.544 11.4528C19.5838 11.4468 19.622 11.4332 19.6564 11.4125C19.6909 11.3918 19.721 11.3645 19.7449 11.3322C19.7688 11.2998 19.7862 11.2631 19.796 11.2241C19.8057 11.185 19.8077 11.1444 19.8018 11.1046C19.7959 11.0648 19.7823 11.0266 19.7616 10.992C19.7409 10.9575 19.7137 10.9274 19.6814 10.9034C19.1428 10.5444 18.5096 10.3543 17.8626 10.3576C17.2156 10.3609 16.5842 10.5573 16.0493 10.9218C15.9942 10.9584 15.9524 11.0118 15.9301 11.0741C15.9078 11.1364 15.9062 11.2043 15.9256 11.2676C15.9449 11.3309 15.9842 11.3862 16.0375 11.4253C16.0909 11.4644 16.1554 11.4852 16.2215 11.4846Z" fill="#494752"/>
<path d="M20.3406 11.5741C20.1816 12.0848 20.206 12.6351 20.4097 13.1296C20.5864 13.6269 20.8406 14.093 21.1629 14.5106L21.4187 14.7973C21.4499 14.8256 21.4752 14.8599 21.493 14.8981C21.5108 14.9363 21.5208 14.9777 21.5224 15.0199C21.5036 15.2268 21.404 15.4179 21.2454 15.5517C20.8551 15.8452 20.369 15.9812 19.8833 15.9328C20.1357 16.0338 20.4085 16.0729 20.679 16.047C20.9496 16.0211 21.21 15.9309 21.4387 15.7838C21.5648 15.6972 21.6704 15.584 21.7482 15.4522C21.8259 15.3204 21.8739 15.1731 21.8887 15.0207C21.8899 14.8477 21.8252 14.6806 21.7078 14.5536L21.4608 14.2641C21.1586 13.873 20.8982 13.4513 20.6838 13.0059C20.4498 12.5656 20.3317 12.0728 20.3406 11.5741Z" fill="#B5806D"/>
<path d="M18.894 18.0771C18.894 18.0771 20.8205 19.8459 22.5144 18.0461L18.894 18.0771Z" fill="#9D6D5C"/>
<path d="M19.3235 27.0702C19.3235 27.0702 22.709 36.8731 9.76378 22.3109L4.13935 26.988C2.97381 27.974 2.16984 29.321 1.85465 30.8159C1.57917 32.9367 1.3036 35.0575 1.02795 37.1783C-0.0195773 45.2412 -0.0268746 53.4055 1.00624 61.4703C1.285 63.6453 1.56368 65.8203 1.84228 67.9954L26.0277 71.3208C24.6672 66.6566 23.8637 61.8472 23.6342 56.9935C23.362 51.1838 24.0806 48.7119 23.8063 43.8931C23.4286 38.0453 21.9054 32.329 19.3235 27.0702Z" fill="#FFBA55"/>
<path d="M22.8511 66.189C22.413 65.9376 21.9668 65.7096 21.5271 65.4704L20.2359 64.7095C19.3948 64.1796 18.591 63.5924 17.8304 62.9521C17.0687 62.3186 16.3797 61.6023 15.7761 60.8163C15.4782 60.4201 15.2129 60.0003 14.9829 59.5611C14.7378 59.1253 14.5514 58.6589 14.4288 58.1741C14.5677 59.1868 14.9463 60.1516 15.5331 60.988C16.1052 61.834 16.7942 62.5944 17.5796 63.2466C18.3563 63.9011 19.1958 64.4768 20.086 64.9653L21.4429 65.6393C21.914 65.8229 22.3784 66.0177 22.8511 66.189Z" fill="#E6952A"/>
<path d="M10.5181 33.2379C10.5181 33.2379 11.6136 30.6236 25.9493 51.242L20.5022 58.3213C20.5022 58.3213 12.5936 51.8042 9.01126 46.178" fill="#FFBA55"/>
<path d="M10.5181 33.2379C10.5867 33.1201 10.7409 33.1199 10.8612 33.132C10.9862 33.1556 11.1088 33.1909 11.2272 33.2374C11.4557 33.3469 11.6748 33.4749 11.8825 33.6201C12.0943 33.7582 12.2964 33.9108 12.4874 34.0768C12.6786 34.2408 12.8849 34.391 13.0641 34.5676C13.8117 35.2454 14.5186 35.9655 15.2052 36.7027C16.5758 38.1814 17.8381 39.7497 19.104 41.3138C20.3606 42.8853 21.5743 44.49 22.7624 46.112C23.9703 47.7206 25.1025 49.3815 26.2742 51.0154L26.443 51.2508L23.5329 55.0186L20.5551 58.8396L20.2733 58.5997C19.1992 57.6853 18.1617 56.7473 17.1508 55.7732C16.1399 54.8011 15.1465 53.8111 14.185 52.7901C13.223 51.7697 12.2908 50.7201 11.4208 49.6191C10.5407 48.528 9.7357 47.3784 9.01126 46.178C9.82498 47.3124 10.6991 48.402 11.6298 49.4423C12.5626 50.4784 13.5381 51.4742 14.5209 52.4609C15.5113 53.441 16.5327 54.3894 17.5701 55.3188C18.6121 56.2411 19.6607 57.1647 20.731 58.0426L20.217 58.101L22.9186 54.5446L25.6356 51L25.6243 51.4684C24.4705 49.8281 23.3333 48.1748 22.1618 46.548C21.007 44.9083 19.8166 43.2958 18.6321 41.6787C17.4301 40.0762 16.2181 38.4777 14.9226 36.9526C14.2838 36.1823 13.6244 35.429 12.9237 34.7164C12.7554 34.5302 12.5627 34.3729 12.3827 34.1995C12.2036 34.0261 12.014 33.864 11.8149 33.7142C11.6225 33.5562 11.4177 33.4143 11.2022 33.2898C11.0913 33.2363 10.9757 33.1931 10.857 33.1606C10.7423 33.1407 10.5952 33.1271 10.5181 33.2379Z" fill="#E6952A"/>
<path d="M47.7042 106.137L48.999 112.704L61.6902 114.751L44.7196 119.911L41.1475 108.131L47.7042 106.137Z" fill="#D19E8A"/>
<path d="M63.5693 114.812L63.5575 114.773C63.4672 114.475 63.296 114.208 63.063 114.002C62.83 113.796 62.5444 113.658 62.238 113.605L49.0115 111.304C48.8821 111.281 48.749 111.305 48.6353 111.371C48.5216 111.437 48.4347 111.54 48.3897 111.664L47.0537 115.334C47.0063 115.464 46.9124 115.572 46.7901 115.637C46.6678 115.702 46.5259 115.72 46.3916 115.686L43.2804 114.905C43.1843 114.881 43.0835 114.883 42.9884 114.91C42.8932 114.938 42.8071 114.99 42.7388 115.062C42.6705 115.134 42.6225 115.223 42.5996 115.319C42.5767 115.416 42.5798 115.517 42.6086 115.612L44.1562 120.715C44.1993 120.858 44.2971 120.977 44.4281 121.047C44.559 121.117 44.7124 121.132 44.8545 121.089L63.1963 115.511C63.3384 115.468 63.4575 115.37 63.5274 115.239C63.5974 115.108 63.6125 114.954 63.5693 114.812Z" fill="#251D1B"/>
<path d="M1.37995 63.2183C1.37995 63.2183 -2.4847 80.3722 4.90117 80.0647H32.9792L40.5436 110.637C40.5436 110.637 43.452 111.825 45.9766 111.295C47.7108 110.932 49.2052 109.275 50.244 108.428C50.244 108.428 44.7179 64.5985 34.264 63.2675C21.2242 61.6072 1.37995 63.2183 1.37995 63.2183Z" fill="#808B49"/>
<path d="M32.9792 80.0647C33.6264 79.251 34.2049 78.3846 34.7082 77.4747C34.9435 77.0253 35.1845 76.5764 35.3949 76.1026C35.6176 75.6327 35.8085 75.1457 36.0648 74.6461C36.1361 75.1971 36.1093 75.7565 35.9855 76.2981C35.8714 76.8449 35.6761 77.3715 35.4059 77.8602C35.1367 78.3518 34.7927 78.7984 34.3863 79.1839C33.991 79.5817 33.5095 79.8831 32.9792 80.0647Z" fill="#5E7C24"/>
<path d="M53.3263 63.1414C57.9412 63.1414 57.9489 55.9592 53.3263 55.9592C48.7115 55.9592 48.7038 63.1414 53.3263 63.1414Z" fill="#6F56A5"/>
<path d="M25.7882 51.6428L47.3595 54.5227C47.3595 54.5227 56.1695 51.2489 57.9639 55.8918C58.2009 56.5331 58.2078 57.237 57.9833 57.8828C57.4453 59.4979 56.1731 62.6868 55.2415 60.0261L54.2835 57.2902C54.2835 57.2902 50.9768 59.5832 47.782 58.4461C46.6278 58.0353 31.1793 61.0484 22.8513 59.0141L20.5024 58.3213L25.7882 51.6428Z" fill="#D19E8A"/>
</svg>
