<svg width="151" height="101" viewBox="0 0 151 101" fill="none" xmlns="http://www.w3.org/2000/svg">
<path d="M25.4098 100.328C35.7314 100.328 44.0987 91.9258 44.0987 81.5618C44.0987 71.1977 35.7314 62.796 25.4098 62.796C15.0882 62.796 6.72095 71.1977 6.72095 81.5618C6.72095 91.9258 15.0882 100.328 25.4098 100.328Z" fill="#1E1D22"/>
<path fill-rule="evenodd" clip-rule="evenodd" d="M35.109 81.5618C35.109 86.9406 30.7665 91.301 25.4097 91.301C20.053 91.301 15.7104 86.9406 15.7104 81.5618C15.7104 76.183 20.053 71.8226 25.4097 71.8226C30.7665 71.8226 35.109 76.183 35.109 81.5618ZM25.0408 84.0018C26.8699 84.0018 26.873 81.1552 25.0408 81.1552C23.2117 81.1552 23.2087 84.0018 25.0408 84.0018Z" fill="#848384"/>
<path d="M126.811 100.328C137.133 100.328 145.5 91.9258 145.5 81.5618C145.5 71.1977 137.133 62.796 126.811 62.796C116.489 62.796 108.122 71.1977 108.122 81.5618C108.122 91.9258 116.489 100.328 126.811 100.328Z" fill="#1E1D22"/>
<path fill-rule="evenodd" clip-rule="evenodd" d="M136.51 81.5618C136.51 86.9406 132.168 91.301 126.811 91.301C121.454 91.301 117.112 86.9406 117.112 81.5618C117.112 76.183 121.454 71.8226 126.811 71.8226C132.168 71.8226 136.51 76.183 136.51 81.5618ZM126.442 85.4514C130.134 85.4514 130.14 79.7057 126.442 79.7057C122.75 79.7057 122.744 85.4514 126.442 85.4514Z" fill="#848384"/>
<path d="M99.168 6.80464L111.812 0.765381L112.46 14.6035L100.303 10.6634L99.168 6.80464Z" fill="#8E6CD8"/>
<path d="M112.394 14.6064C113.579 14.5507 114.395 11.4077 114.215 7.58644C114.036 3.76514 112.931 0.712506 111.745 0.768206C110.56 0.823907 109.745 3.96685 109.924 7.78815C110.103 11.6095 111.209 14.6621 112.394 14.6064Z" fill="#FFBA55"/>
<path d="M111.745 0.768206C111.598 0.810315 111.461 0.884512 111.345 0.985411C111.229 1.08631 111.136 1.21151 111.074 1.35218C110.927 1.62128 110.814 1.90735 110.737 2.20399C110.576 2.80281 110.465 3.41387 110.404 4.03098C110.177 6.51947 110.295 9.02741 110.755 11.4835C110.873 12.0922 111.04 12.6901 111.257 13.2711C111.361 13.5592 111.5 13.8334 111.671 14.0876C111.746 14.2218 111.85 14.3378 111.975 14.4275C112.1 14.5171 112.243 14.5782 112.394 14.6064C112.227 14.6175 112.06 14.5895 111.906 14.5248C111.751 14.4601 111.614 14.3604 111.505 14.2334C111.27 13.9986 111.068 13.7328 110.905 13.4434C110.587 12.8715 110.334 12.2653 110.152 11.6364C109.439 9.13177 109.316 6.49592 109.792 3.93559C109.914 3.29249 110.109 2.66533 110.373 2.06605C110.508 1.7626 110.684 1.47904 110.896 1.22322C110.992 1.08666 111.12 0.974479 111.267 0.895531C111.415 0.816582 111.578 0.772949 111.745 0.768206Z" fill="#E6952A"/>
<path d="M150.704 79.424C150.704 79.424 133.672 70.8725 103.391 82.2744H49.3032C49.3032 82.2744 31.324 93.6764 1.04333 85.1249C1.04333 85.1249 -2.74176 78.4738 6.72096 64.2213C6.72096 64.2213 12.3986 48.0685 16.1837 45.218L68.3613 45.2454C68.3613 45.2454 67.1436 71.6241 86.0691 73.5244C104.995 75.4247 103.102 57.3716 103.102 57.3716L100.597 17.4176C100.554 14.8838 100.381 12.3539 100.08 9.83781C99.7357 6.90376 98.7418 7.31174 99.9246 7.90559C101.817 8.85576 120.424 29.0652 124.209 57.5701C124.209 57.5702 145.973 54.7197 150.704 79.424Z" fill="#8E6CD8"/>
<path d="M14.112 45.9701H65.7481C68.8835 45.9701 71.4257 43.0809 71.4257 39.5174C71.4257 35.9539 68.8835 33.0647 65.7481 33.0647H14.112C10.9765 33.0647 8.43433 35.9539 8.43433 39.5174C8.43433 43.0809 10.9765 45.9701 14.112 45.9701Z" fill="#6F56A5"/>
<path d="M49.3032 82.2743C50.9825 79.7017 52.2947 76.9067 53.2016 73.9704C54.0852 71.0753 54.462 67.9842 53.7742 65.1202C53.0483 62.2583 51.2969 59.7636 48.8534 58.111C48.7035 58.0041 48.5637 57.8846 48.406 57.7874L47.9333 57.4958C47.6159 57.3048 47.3125 57.0928 46.9844 56.918C46.3135 56.5897 45.6799 56.2075 44.9691 55.9378L43.9271 55.4984C43.5907 55.3586 43.2474 55.236 42.8986 55.1312C42.1928 54.9111 41.4662 54.7298 40.7343 54.5751C37.7843 53.9568 34.7628 53.7521 31.7566 53.9668C30.2486 54.0664 28.748 54.2561 27.2627 54.535C25.7754 54.8158 24.3092 55.2027 22.8517 55.6278C17.0209 57.5409 11.5637 60.4481 6.72095 64.2212L8.44626 62.6718L10.2523 61.2123L12.1221 59.8285C12.7669 59.3977 13.4047 58.9525 14.0588 58.5319C16.7044 56.8701 19.5218 55.4997 22.4617 54.4448C25.4284 53.402 28.5136 52.7349 31.6456 52.4591C34.7965 52.1958 37.9688 52.3828 41.0671 53.0148C41.8419 53.185 42.6111 53.3831 43.3751 53.6281C43.7515 53.7494 44.1501 53.8855 44.5202 54.0475L45.6053 54.5156C46.3362 54.8008 47.0289 55.2184 47.738 55.576C48.0882 55.7666 48.4186 55.9984 48.7594 56.2082C49.1044 56.4142 49.4343 56.6446 49.7465 56.8976C52.4275 58.7973 54.2971 61.6371 54.9845 64.8531C55.2906 66.4325 55.3331 68.0518 55.1102 69.6452C54.8907 71.2093 54.4973 72.7439 53.9374 74.2204C53.3754 75.6767 52.7017 77.0871 51.9222 78.4392C51.1579 79.7887 50.2819 81.0716 49.3032 82.2743Z" fill="#6F56A5"/>
<path d="M43.0579 61.4279C42.1983 62.4415 41.231 63.3584 40.173 64.1622C39.1221 64.9794 38.0162 65.7234 36.8634 66.3888C36.2994 66.7466 35.7013 67.0368 35.1107 67.3448C34.524 67.6626 33.9134 67.9256 33.3084 68.2039C33.0064 68.3446 32.7001 68.4749 32.3947 68.6075L31.4622 68.962C30.8374 69.189 30.2221 69.4473 29.5886 69.6484C27.0624 70.4699 24.4694 71.0692 21.8392 71.4395C20.5332 71.6556 19.2042 71.7096 17.8917 71.8272C16.5699 71.8683 15.2479 71.87 13.9316 71.8226C15.2227 71.5162 16.5139 71.3065 17.7946 71.0492L19.7074 70.6345C20.3437 70.4965 20.9842 70.3898 21.6114 70.2148C22.241 70.0537 22.8707 69.8985 23.5028 69.7572C24.1378 69.6276 24.7521 69.4152 25.3766 69.2476C25.996 69.0616 26.6323 68.9353 27.2433 68.7239L29.0884 68.1334C29.7077 67.95 30.3071 67.7106 30.9178 67.5021L31.8291 67.1756C32.1272 67.0531 32.4244 66.9284 32.726 66.8139C33.9382 66.3669 35.1077 65.8213 36.2861 65.2905C36.8678 65.0102 37.4567 64.7387 38.0268 64.4339L38.8927 63.9905L39.7404 63.5139C40.8859 62.8839 41.9936 62.1874 43.0579 61.4279Z" fill="#6F56A5"/>
<path d="M45.2712 67.6953C44.4116 68.709 43.4443 69.6258 42.3864 70.4297C41.3354 71.2469 40.2296 71.9908 39.0768 72.6562C38.5128 73.014 37.9146 73.3043 37.3241 73.6123C36.7374 73.93 36.1267 74.193 35.5218 74.4714C35.2198 74.612 34.9135 74.7424 34.608 74.8749L33.6756 75.2295C33.0508 75.4565 32.4355 75.7147 31.802 75.9159C29.2758 76.7373 26.6828 77.3366 24.0526 77.707C22.7465 77.923 21.4176 77.9771 20.1051 78.0945C18.7832 78.1358 17.4612 78.1374 16.145 78.0901C17.4361 77.7837 18.7272 77.574 20.0079 77.3167L21.9208 76.9019C22.557 76.764 23.1976 76.6573 23.8248 76.4823C24.4544 76.3212 25.0841 76.1659 25.7161 76.0246C26.3512 75.8951 26.9655 75.6827 27.59 75.5151C28.2094 75.3291 28.8457 75.2026 29.4567 74.9914L31.3017 74.4009C31.921 74.2175 32.5204 73.9781 33.1313 73.7695L34.0425 73.443C34.3406 73.3205 34.6378 73.1958 34.9394 73.0814C36.1515 72.6343 37.3211 72.0888 38.4995 71.5579C39.0812 71.2776 39.6701 71.0062 40.2402 70.7013L41.1061 70.2579L41.9539 69.7813C43.0993 69.1514 44.207 68.4548 45.2712 67.6953Z" fill="#6F56A5"/>
<path d="M106.628 15.4111C106.037 14.8923 105.495 14.3471 104.962 13.797L103.381 12.1477C102.863 11.5959 102.334 11.0573 101.789 10.5464C101.519 10.2913 101.233 10.0532 100.934 9.83324C100.641 9.59922 100.294 9.44252 99.9248 9.37745C100.323 9.2805 100.742 9.31887 101.116 9.48652C101.489 9.63659 101.843 9.82785 102.174 10.0567C102.82 10.5059 103.418 11.022 103.957 11.5964C104.492 12.1621 104.987 12.7647 105.438 13.3998C105.898 14.0307 106.296 14.7042 106.628 15.4111Z" fill="#6F56A5"/>
<path d="M124.209 57.5702C121.416 58.2963 118.751 59.4462 116.306 60.9801C115.106 61.734 113.97 62.5846 112.908 63.5236C111.842 64.4483 110.865 65.4723 109.993 66.5819C109.099 67.6769 108.303 68.8485 107.614 70.0834C107.424 70.3826 107.269 70.7019 107.104 71.0162C106.945 71.3337 106.764 71.6406 106.623 71.9675C106.34 72.62 106.023 73.2598 105.773 73.9305C104.736 76.6363 103.939 79.4284 103.391 82.2744C103.32 79.3088 103.728 76.3513 104.6 73.5163C105.466 70.6298 106.875 67.9359 108.753 65.58C111.606 62.0509 115.478 59.4912 119.84 58.2511C121.261 57.8377 122.729 57.6089 124.209 57.5702Z" fill="#6F56A5"/>
<path d="M35.1412 31.5238H16.4015L12.1751 27.0736C12.1121 27.0043 12.0348 26.9496 11.9487 26.913C11.8626 26.8764 11.7696 26.8589 11.6761 26.8616C11.5825 26.8643 11.4907 26.8872 11.4068 26.9288C11.323 26.9703 11.2491 27.0295 11.1901 27.1023C11.0621 27.257 10.9942 27.4528 10.999 27.6537C11.0037 27.8546 11.0808 28.047 11.216 28.1955L14.3767 31.5238H9.33468V28.0117C9.34472 27.914 9.33417 27.8153 9.30372 27.722C9.27327 27.6287 9.22361 27.5428 9.15793 27.4699C9.09225 27.397 9.01203 27.3388 8.92245 27.2989C8.83287 27.259 8.73593 27.2384 8.63789 27.2384C8.53986 27.2384 8.44291 27.259 8.35333 27.2989C8.26375 27.3388 8.18352 27.397 8.11785 27.4699C8.05217 27.5428 8.0025 27.6287 7.97205 27.722C7.94161 27.8153 7.93106 27.914 7.9411 28.0117V31.5239H4.49881C4.30771 31.5435 4.13068 31.6334 4.00197 31.7762C3.87325 31.919 3.802 32.1046 3.802 32.297C3.802 32.4893 3.87325 32.6749 4.00197 32.8177C4.13068 32.9605 4.30771 33.0504 4.49881 33.0701H7.9411V36.5822C7.93106 36.6799 7.94161 36.7786 7.97205 36.8719C8.0025 36.9652 8.05217 37.0511 8.11785 37.124C8.18352 37.1969 8.26375 37.2551 8.35333 37.295C8.44291 37.3349 8.53986 37.3555 8.63789 37.3555C8.73593 37.3555 8.83287 37.3349 8.92245 37.295C9.01203 37.2551 9.09225 37.1969 9.15793 37.124C9.22361 37.0511 9.27327 36.9652 9.30372 36.8719C9.33417 36.7786 9.34472 36.6799 9.33468 36.5822V33.0701H15.8452L19.3557 36.7665C19.4187 36.8357 19.496 36.8904 19.5821 36.927C19.6682 36.9635 19.7612 36.9811 19.8547 36.9783C19.9482 36.9756 20.0401 36.9527 20.1239 36.9112C20.2078 36.8697 20.2817 36.8105 20.3406 36.7378C20.4687 36.5831 20.5366 36.3872 20.5318 36.1863C20.5271 35.9854 20.45 35.793 20.3148 35.6446L17.8699 33.07H35.1412C35.3323 33.0504 35.5093 32.9605 35.6381 32.8176C35.7668 32.6748 35.838 32.4893 35.838 32.2969C35.838 32.1046 35.7668 31.919 35.6381 31.7762C35.5093 31.6334 35.3323 31.5435 35.1412 31.5238Z" fill="#464646"/>
<path d="M8.66575 32.8053C8.80836 32.8004 8.94347 32.7402 9.04261 32.6374C9.14176 32.5347 9.19717 32.3973 9.19717 32.2544C9.19717 32.1116 9.14176 31.9743 9.04261 31.8715C8.94347 31.7687 8.80836 31.7085 8.66575 31.7036C8.52314 31.7085 8.38802 31.7687 8.28888 31.8715C8.18974 31.9743 8.13432 32.1116 8.13432 32.2544C8.13432 32.3973 8.18974 32.5347 8.28888 32.6374C8.38802 32.7402 8.52314 32.8004 8.66575 32.8053Z" fill="#616161"/>
<path d="M8.66575 36.9453C8.80836 36.9403 8.94347 36.8801 9.04261 36.7774C9.14176 36.6746 9.19717 36.5373 9.19717 36.3944C9.19717 36.2515 9.14176 36.1142 9.04261 36.0115C8.94347 35.9087 8.80836 35.8485 8.66575 35.8436C8.52314 35.8485 8.38802 35.9087 8.28888 36.0115C8.18974 36.1142 8.13432 36.2515 8.13432 36.3944C8.13432 36.5373 8.18974 36.6746 8.28888 36.7774C8.38802 36.8801 8.52314 36.9403 8.66575 36.9453Z" fill="#616161"/>
<path d="M11.8013 28.3C11.9439 28.2951 12.079 28.2349 12.1782 28.1321C12.2773 28.0294 12.3327 27.8921 12.3327 27.7492C12.3327 27.6063 12.2773 27.469 12.1782 27.3662C12.079 27.2634 11.9439 27.2032 11.8013 27.1983C11.6587 27.2032 11.5236 27.2634 11.4244 27.3662C11.3253 27.469 11.2699 27.6063 11.2699 27.7492C11.2699 27.8921 11.3253 28.0294 11.4244 28.1321C11.5236 28.2349 11.6587 28.2951 11.8013 28.3Z" fill="#616161"/>
<path d="M8.66576 28.6769C8.80835 28.672 8.94345 28.6118 9.04258 28.509C9.14171 28.4062 9.19711 28.2689 9.19711 28.1261C9.19711 27.9832 9.14171 27.8459 9.04258 27.7431C8.94345 27.6404 8.80835 27.5802 8.66576 27.5752C8.52317 27.5802 8.38806 27.6404 8.28893 27.7431C8.18981 27.8459 8.13441 27.9832 8.13441 28.1261C8.13441 28.2689 8.18981 28.4062 8.28893 28.509C8.38806 28.6118 8.52317 28.672 8.66576 28.6769Z" fill="#616161"/>
<path d="M15.8149 32.8053C15.9575 32.8004 16.0926 32.7402 16.1917 32.6374C16.2909 32.5347 16.3463 32.3973 16.3463 32.2544C16.3463 32.1116 16.2909 31.9743 16.1917 31.8715C16.0926 31.7687 15.9575 31.7085 15.8149 31.7036C15.6723 31.7085 15.5371 31.7687 15.438 31.8715C15.3388 31.9743 15.2834 32.1116 15.2834 32.2544C15.2834 32.3973 15.3388 32.5347 15.438 32.6374C15.5371 32.7402 15.6723 32.8004 15.8149 32.8053Z" fill="#616161"/>
<path d="M19.7371 32.6591C19.8797 32.6542 20.0148 32.594 20.114 32.4912C20.2131 32.3885 20.2685 32.2512 20.2685 32.1083C20.2685 31.9654 20.2131 31.8281 20.114 31.7253C20.0148 31.6225 19.8797 31.5623 19.7371 31.5574C19.5945 31.5623 19.4594 31.6225 19.3603 31.7253C19.2611 31.8281 19.2057 31.9654 19.2057 32.1083C19.2057 32.2512 19.2611 32.3885 19.3603 32.4912C19.4594 32.594 19.5945 32.6542 19.7371 32.6591Z" fill="#616161"/>
<path d="M19.7371 36.6902C19.8797 36.6852 20.0148 36.6251 20.114 36.5223C20.2131 36.4195 20.2685 36.2822 20.2685 36.1393C20.2685 35.9964 20.2131 35.8591 20.114 35.7564C20.0148 35.6536 19.8797 35.5934 19.7371 35.5885C19.5945 35.5934 19.4594 35.6536 19.3603 35.7564C19.2611 35.8591 19.2057 35.9964 19.2057 36.1393C19.2057 36.2822 19.2611 36.4195 19.3603 36.5223C19.4594 36.6251 19.5945 36.6852 19.7371 36.6902Z" fill="#616161"/>
<path d="M4.86125 32.8053C5.00385 32.8004 5.13898 32.7402 5.23812 32.6374C5.33726 32.5347 5.39267 32.3973 5.39267 32.2544C5.39267 32.1116 5.33726 31.9743 5.23812 31.8715C5.13898 31.7687 5.00385 31.7085 4.86125 31.7036C4.71864 31.7085 4.58352 31.7687 4.48438 31.8715C4.38524 31.9743 4.32983 32.1116 4.32983 32.2544C4.32983 32.3973 4.38524 32.5347 4.48438 32.6374C4.58352 32.7402 4.71864 32.8004 4.86125 32.8053Z" fill="#616161"/>
<path d="M34.5447 32.8053C34.6873 32.8004 34.8224 32.7402 34.9215 32.6374C35.0207 32.5347 35.0761 32.3973 35.0761 32.2544C35.0761 32.1116 35.0207 31.9743 34.9215 31.8715C34.8224 31.7687 34.6873 31.7085 34.5447 31.7036C34.4021 31.7085 34.2669 31.7687 34.1678 31.8715C34.0686 31.9743 34.0132 32.1116 34.0132 32.2544C34.0132 32.3973 34.0686 32.5347 34.1678 32.6374C34.2669 32.7402 34.4021 32.8004 34.5447 32.8053Z" fill="#616161"/>
<path d="M33.9438 31.5101H5.53044C5.12046 31.5101 4.72727 31.347 4.43738 31.0567C4.14748 30.7664 3.98462 30.3726 3.98462 29.9621V9.12244H35.4896V29.9621C35.4896 30.3726 35.3267 30.7664 35.0368 31.0567C34.7469 31.347 34.3538 31.5101 33.9438 31.5101Z" fill="#584432"/>
<path d="M23.3496 15.5705C23.2478 15.4147 23.0992 15.4102 22.9299 15.4051C22.9107 15.4045 22.8912 15.4039 22.8716 15.4031C22.8566 15.4024 22.84 15.4027 22.8228 15.403C22.7541 15.4041 22.6737 15.4053 22.6333 15.3476C22.5864 15.2807 22.5908 15.1514 22.5945 15.0446C22.5956 15.0109 22.5967 14.9794 22.5961 14.9529C22.5895 14.7049 22.5757 14.4414 22.48 14.3534C22.4079 14.2873 22.1919 14.2965 21.9928 14.3049C21.9283 14.3076 21.8655 14.3103 21.8099 14.3103H17.5714C17.4861 14.3103 17.3966 14.3033 17.3087 14.2965C17.1375 14.2832 16.9721 14.2704 16.8547 14.3103C16.6843 14.3685 16.6728 14.6746 16.6619 14.9627L16.6613 14.9782C16.6522 15.2161 16.5933 15.3997 16.3979 15.3812C16.1707 15.36 15.9446 15.3533 15.8419 15.559C15.7206 15.8024 15.7456 16.0571 15.7904 16.5134C15.7968 16.5785 15.8036 16.6478 15.8105 16.7218H23.4151C23.4194 16.6677 23.4241 16.6144 23.4286 16.5619C23.4642 16.1514 23.4953 15.7937 23.3496 15.5705Z" fill="#785A3F"/>
<path fill-rule="evenodd" clip-rule="evenodd" d="M16.4027 17.1743C16.5215 18.7821 16.6389 20.3917 16.7564 22.0013C16.8202 22.8753 16.8841 23.7503 16.948 24.624H17.1907C17.2072 24.7608 17.2261 24.9296 17.2461 25.1076C17.2866 25.469 17.3313 25.8682 17.3689 26.1135H17.3958C17.6429 26.023 19.3515 25.2925 19.3523 22.3844C19.352 22.3761 19.3523 22.3678 19.3531 22.3596H18.931C18.9106 22.3594 18.8907 22.3525 18.8746 22.3401C18.8585 22.3277 18.8469 22.3104 18.8417 22.2909C18.8006 22.1893 18.7674 22.0846 18.7425 21.978C18.4942 22.1183 18.297 22.3325 18.179 22.5901C18.067 22.3262 18.0523 22.0319 18.1376 21.7585C18.2228 21.485 18.4025 21.2499 18.6453 21.0942C18.6484 20.2456 18.9661 19.4275 19.5381 18.7949L19.5471 18.7871C19.5637 18.7727 19.585 18.7647 19.6071 18.7645C19.6198 18.7646 19.6324 18.7673 19.6441 18.7725C19.6559 18.7778 19.6664 18.7854 19.675 18.7949C20.2538 19.4284 20.5698 20.2543 20.56 21.1079C20.8073 21.2593 20.9906 21.4943 21.076 21.7692C21.1614 22.0441 21.143 22.3403 21.0243 22.6028C20.9069 22.3448 20.7096 22.1304 20.4608 21.9907C20.4456 22.0941 20.4176 22.1953 20.3774 22.2919C20.3636 22.3331 20.3358 22.3596 20.308 22.3596H19.8578C19.8585 22.3645 19.859 22.3695 19.8593 22.3744L19.8595 22.3756V22.378C19.8597 22.3822 19.8597 22.3865 19.8595 22.3908C19.8657 25.3825 21.6823 26.0615 21.8354 26.1135H21.8878C21.9012 25.8778 21.9447 25.5527 21.9871 25.2357C22.0164 25.0173 22.0451 24.8027 22.0631 24.624H22.3085C22.3871 23.5235 22.4679 22.426 22.5487 21.3286C22.6521 19.9248 22.7555 18.5201 22.8542 17.1097H16.4184C16.3999 17.1133 16.4012 17.1436 16.4027 17.1743Z" fill="#785A3F"/>
<path d="M39.3038 4.0981V6.93146C39.3304 7.48402 39.1376 8.02467 38.7675 8.43535C38.3974 8.84602 37.88 9.09333 37.3284 9.12327H2.14374C1.59248 9.09316 1.07556 8.84567 0.706017 8.43493C0.336477 8.02419 0.144391 7.48364 0.17176 6.93146V4.0981C0.145145 3.5465 0.337598 3.00676 0.70709 2.59681C1.07658 2.18685 1.59308 1.93999 2.14374 1.91016H37.3284C37.8794 1.93982 38.3964 2.1865 38.7664 2.5964C39.1365 3.00629 39.3297 3.54612 39.3038 4.0981Z" fill="#785A3F"/>
</svg>
